<mxfile host="app.diagrams.net" modified="2023-12-15T07:05:28.783Z" agent="Mozilla/5.0 (Windows NT 10.0; Win64; x64) AppleWebKit/537.36 (KHTML, like Gecko) Chrome/116.0.0.0 Safari/537.36" etag="S5A8rohulbghHKI7IeJw" version="22.1.9" type="github">
  <diagram name="第 1 页" id="lIwK7g8RMB_DH358I-mW">
    <mxGraphModel dx="1434" dy="758" grid="1" gridSize="10" guides="1" tooltips="1" connect="1" arrows="1" fold="1" page="1" pageScale="1" pageWidth="827" pageHeight="1169" math="0" shadow="0">
      <root>
        <mxCell id="0" />
        <mxCell id="1" parent="0" />
        <mxCell id="tXbxcoKGRAKi_BX-7x5g-8" value="" style="edgeStyle=orthogonalEdgeStyle;rounded=0;orthogonalLoop=1;jettySize=auto;html=1;" edge="1" parent="1" source="tXbxcoKGRAKi_BX-7x5g-1">
          <mxGeometry relative="1" as="geometry">
            <mxPoint x="290" y="210" as="targetPoint" />
          </mxGeometry>
        </mxCell>
        <mxCell id="tXbxcoKGRAKi_BX-7x5g-1" value="&lt;font style=&quot;font-size: 19px;&quot;&gt;dehaze_net&lt;/font&gt;" style="rounded=1;whiteSpace=wrap;html=1;" vertex="1" parent="1">
          <mxGeometry x="130" y="180" width="120" height="60" as="geometry" />
        </mxCell>
        <mxCell id="tXbxcoKGRAKi_BX-7x5g-19" style="edgeStyle=orthogonalEdgeStyle;rounded=0;orthogonalLoop=1;jettySize=auto;html=1;exitX=1;exitY=0.5;exitDx=0;exitDy=0;" edge="1" parent="1" source="tXbxcoKGRAKi_BX-7x5g-9">
          <mxGeometry relative="1" as="geometry">
            <mxPoint x="290" y="330" as="targetPoint" />
          </mxGeometry>
        </mxCell>
        <mxCell id="tXbxcoKGRAKi_BX-7x5g-54" style="edgeStyle=orthogonalEdgeStyle;rounded=0;orthogonalLoop=1;jettySize=auto;html=1;exitX=1;exitY=0.5;exitDx=0;exitDy=0;entryX=0;entryY=0.25;entryDx=0;entryDy=0;" edge="1" parent="1" source="tXbxcoKGRAKi_BX-7x5g-9" target="tXbxcoKGRAKi_BX-7x5g-25">
          <mxGeometry relative="1" as="geometry" />
        </mxCell>
        <mxCell id="tXbxcoKGRAKi_BX-7x5g-9" value="&lt;font style=&quot;font-size: 19px;&quot;&gt;transmap&lt;br&gt;airlight net&lt;/font&gt;" style="rounded=1;whiteSpace=wrap;html=1;" vertex="1" parent="1">
          <mxGeometry x="130" y="300" width="120" height="60" as="geometry" />
        </mxCell>
        <mxCell id="tXbxcoKGRAKi_BX-7x5g-49" style="edgeStyle=orthogonalEdgeStyle;rounded=0;orthogonalLoop=1;jettySize=auto;html=1;exitX=1;exitY=0.5;exitDx=0;exitDy=0;entryX=0;entryY=0.5;entryDx=0;entryDy=0;" edge="1" parent="1" source="tXbxcoKGRAKi_BX-7x5g-13" target="tXbxcoKGRAKi_BX-7x5g-48">
          <mxGeometry relative="1" as="geometry" />
        </mxCell>
        <mxCell id="tXbxcoKGRAKi_BX-7x5g-13" value="J" style="whiteSpace=wrap;html=1;aspect=fixed;" vertex="1" parent="1">
          <mxGeometry x="290" y="180" width="60" height="60" as="geometry" />
        </mxCell>
        <mxCell id="tXbxcoKGRAKi_BX-7x5g-23" style="edgeStyle=orthogonalEdgeStyle;rounded=0;orthogonalLoop=1;jettySize=auto;html=1;exitX=0.5;exitY=1;exitDx=0;exitDy=0;entryX=0.5;entryY=0;entryDx=0;entryDy=0;" edge="1" parent="1" source="tXbxcoKGRAKi_BX-7x5g-15" target="tXbxcoKGRAKi_BX-7x5g-20">
          <mxGeometry relative="1" as="geometry" />
        </mxCell>
        <mxCell id="tXbxcoKGRAKi_BX-7x5g-15" value="dehaze_img" style="text;html=1;strokeColor=none;fillColor=none;align=center;verticalAlign=middle;whiteSpace=wrap;rounded=0;" vertex="1" parent="1">
          <mxGeometry x="290" y="230" width="60" height="30" as="geometry" />
        </mxCell>
        <mxCell id="tXbxcoKGRAKi_BX-7x5g-20" value="" style="whiteSpace=wrap;html=1;aspect=fixed;" vertex="1" parent="1">
          <mxGeometry x="290" y="300" width="60" height="60" as="geometry" />
        </mxCell>
        <mxCell id="tXbxcoKGRAKi_BX-7x5g-21" value="fake_im_hazy2" style="text;html=1;strokeColor=none;fillColor=none;align=center;verticalAlign=middle;whiteSpace=wrap;rounded=0;" vertex="1" parent="1">
          <mxGeometry x="290" y="350" width="60" height="30" as="geometry" />
        </mxCell>
        <mxCell id="tXbxcoKGRAKi_BX-7x5g-39" style="edgeStyle=orthogonalEdgeStyle;rounded=0;orthogonalLoop=1;jettySize=auto;html=1;exitX=1;exitY=0.5;exitDx=0;exitDy=0;entryX=0;entryY=0.5;entryDx=0;entryDy=0;" edge="1" parent="1" source="tXbxcoKGRAKi_BX-7x5g-25" target="tXbxcoKGRAKi_BX-7x5g-37">
          <mxGeometry relative="1" as="geometry" />
        </mxCell>
        <mxCell id="tXbxcoKGRAKi_BX-7x5g-25" value="" style="whiteSpace=wrap;html=1;aspect=fixed;" vertex="1" parent="1">
          <mxGeometry x="290" y="410" width="60" height="60" as="geometry" />
        </mxCell>
        <mxCell id="tXbxcoKGRAKi_BX-7x5g-28" value="fake_im_hazy1" style="text;html=1;strokeColor=none;fillColor=none;align=center;verticalAlign=middle;whiteSpace=wrap;rounded=0;" vertex="1" parent="1">
          <mxGeometry x="290" y="460" width="60" height="30" as="geometry" />
        </mxCell>
        <mxCell id="tXbxcoKGRAKi_BX-7x5g-32" style="edgeStyle=orthogonalEdgeStyle;rounded=0;orthogonalLoop=1;jettySize=auto;html=1;exitX=1;exitY=0.5;exitDx=0;exitDy=0;entryX=0;entryY=0.5;entryDx=0;entryDy=0;" edge="1" parent="1" source="tXbxcoKGRAKi_BX-7x5g-29" target="tXbxcoKGRAKi_BX-7x5g-25">
          <mxGeometry relative="1" as="geometry" />
        </mxCell>
        <mxCell id="tXbxcoKGRAKi_BX-7x5g-29" value="" style="whiteSpace=wrap;html=1;aspect=fixed;" vertex="1" parent="1">
          <mxGeometry x="160" y="410" width="60" height="60" as="geometry" />
        </mxCell>
        <mxCell id="tXbxcoKGRAKi_BX-7x5g-31" value="clear_img" style="text;html=1;strokeColor=none;fillColor=none;align=center;verticalAlign=middle;whiteSpace=wrap;rounded=0;" vertex="1" parent="1">
          <mxGeometry x="160" y="460" width="60" height="30" as="geometry" />
        </mxCell>
        <mxCell id="tXbxcoKGRAKi_BX-7x5g-36" style="edgeStyle=orthogonalEdgeStyle;rounded=0;orthogonalLoop=1;jettySize=auto;html=1;exitX=1;exitY=0.5;exitDx=0;exitDy=0;entryX=0;entryY=0.5;entryDx=0;entryDy=0;" edge="1" parent="1" source="tXbxcoKGRAKi_BX-7x5g-33" target="tXbxcoKGRAKi_BX-7x5g-9">
          <mxGeometry relative="1" as="geometry" />
        </mxCell>
        <mxCell id="tXbxcoKGRAKi_BX-7x5g-55" style="edgeStyle=orthogonalEdgeStyle;rounded=0;orthogonalLoop=1;jettySize=auto;html=1;exitX=0.5;exitY=0;exitDx=0;exitDy=0;entryX=0;entryY=0.5;entryDx=0;entryDy=0;" edge="1" parent="1" source="tXbxcoKGRAKi_BX-7x5g-33" target="tXbxcoKGRAKi_BX-7x5g-1">
          <mxGeometry relative="1" as="geometry" />
        </mxCell>
        <mxCell id="tXbxcoKGRAKi_BX-7x5g-33" value="" style="whiteSpace=wrap;html=1;aspect=fixed;" vertex="1" parent="1">
          <mxGeometry x="10" y="300" width="60" height="60" as="geometry" />
        </mxCell>
        <mxCell id="tXbxcoKGRAKi_BX-7x5g-34" value="real_hazy" style="text;html=1;strokeColor=none;fillColor=none;align=center;verticalAlign=middle;whiteSpace=wrap;rounded=0;" vertex="1" parent="1">
          <mxGeometry x="10" y="350" width="60" height="30" as="geometry" />
        </mxCell>
        <mxCell id="tXbxcoKGRAKi_BX-7x5g-40" style="edgeStyle=orthogonalEdgeStyle;rounded=0;orthogonalLoop=1;jettySize=auto;html=1;exitX=1;exitY=0.5;exitDx=0;exitDy=0;" edge="1" parent="1" source="tXbxcoKGRAKi_BX-7x5g-37">
          <mxGeometry relative="1" as="geometry">
            <mxPoint x="640" y="440" as="targetPoint" />
          </mxGeometry>
        </mxCell>
        <mxCell id="tXbxcoKGRAKi_BX-7x5g-37" value="&lt;font style=&quot;font-size: 19px;&quot;&gt;dehaze_net&lt;/font&gt;" style="rounded=1;whiteSpace=wrap;html=1;" vertex="1" parent="1">
          <mxGeometry x="450" y="410" width="120" height="60" as="geometry" />
        </mxCell>
        <mxCell id="tXbxcoKGRAKi_BX-7x5g-43" style="edgeStyle=orthogonalEdgeStyle;rounded=0;orthogonalLoop=1;jettySize=auto;html=1;exitX=1;exitY=0.5;exitDx=0;exitDy=0;" edge="1" parent="1" source="tXbxcoKGRAKi_BX-7x5g-38">
          <mxGeometry relative="1" as="geometry">
            <mxPoint x="640" y="330" as="targetPoint" />
          </mxGeometry>
        </mxCell>
        <mxCell id="tXbxcoKGRAKi_BX-7x5g-51" style="edgeStyle=orthogonalEdgeStyle;rounded=0;orthogonalLoop=1;jettySize=auto;html=1;exitX=0.5;exitY=0;exitDx=0;exitDy=0;entryX=0.5;entryY=1;entryDx=0;entryDy=0;" edge="1" parent="1" source="tXbxcoKGRAKi_BX-7x5g-38" target="tXbxcoKGRAKi_BX-7x5g-50">
          <mxGeometry relative="1" as="geometry" />
        </mxCell>
        <mxCell id="tXbxcoKGRAKi_BX-7x5g-38" value="&lt;font style=&quot;font-size: 19px;&quot;&gt;transmap&lt;br&gt;airlight net&lt;/font&gt;" style="rounded=1;whiteSpace=wrap;html=1;" vertex="1" parent="1">
          <mxGeometry x="450" y="300" width="120" height="60" as="geometry" />
        </mxCell>
        <mxCell id="tXbxcoKGRAKi_BX-7x5g-46" style="edgeStyle=orthogonalEdgeStyle;rounded=0;orthogonalLoop=1;jettySize=auto;html=1;exitX=0.5;exitY=0;exitDx=0;exitDy=0;" edge="1" parent="1" source="tXbxcoKGRAKi_BX-7x5g-41" target="tXbxcoKGRAKi_BX-7x5g-45">
          <mxGeometry relative="1" as="geometry" />
        </mxCell>
        <mxCell id="tXbxcoKGRAKi_BX-7x5g-41" value="" style="whiteSpace=wrap;html=1;aspect=fixed;" vertex="1" parent="1">
          <mxGeometry x="640" y="410" width="60" height="60" as="geometry" />
        </mxCell>
        <mxCell id="tXbxcoKGRAKi_BX-7x5g-42" value="syn_dehaze" style="text;html=1;strokeColor=none;fillColor=none;align=center;verticalAlign=middle;whiteSpace=wrap;rounded=0;" vertex="1" parent="1">
          <mxGeometry x="640" y="460" width="60" height="30" as="geometry" />
        </mxCell>
        <mxCell id="tXbxcoKGRAKi_BX-7x5g-44" value="" style="whiteSpace=wrap;html=1;aspect=fixed;" vertex="1" parent="1">
          <mxGeometry x="640" y="300" width="60" height="60" as="geometry" />
        </mxCell>
        <mxCell id="tXbxcoKGRAKi_BX-7x5g-45" value="fake_im_hazy4" style="text;html=1;strokeColor=none;fillColor=none;align=center;verticalAlign=middle;whiteSpace=wrap;rounded=0;" vertex="1" parent="1">
          <mxGeometry x="640" y="350" width="60" height="30" as="geometry" />
        </mxCell>
        <mxCell id="tXbxcoKGRAKi_BX-7x5g-48" value="" style="whiteSpace=wrap;html=1;aspect=fixed;" vertex="1" parent="1">
          <mxGeometry x="480" y="180" width="60" height="60" as="geometry" />
        </mxCell>
        <mxCell id="tXbxcoKGRAKi_BX-7x5g-50" value="fake_im_hazy3" style="text;html=1;strokeColor=none;fillColor=none;align=center;verticalAlign=middle;whiteSpace=wrap;rounded=0;" vertex="1" parent="1">
          <mxGeometry x="480" y="230" width="60" height="30" as="geometry" />
        </mxCell>
      </root>
    </mxGraphModel>
  </diagram>
</mxfile>
